<?xml version="1.0" standalone="no"?>
<!DOCTYPE svg PUBLIC "-//W3C//DTD SVG 20010904//EN"
 "http://www.w3.org/TR/2001/REC-SVG-20010904/DTD/svg10.dtd">
<svg version="1.0" xmlns="http://www.w3.org/2000/svg"
 width="500.000000pt" height="500.000000pt" viewBox="0 0 500.000000 500.000000"
 preserveAspectRatio="xMidYMid meet">

<g transform="translate(0.000000,500.000000) scale(0.100000,-0.100000)"
fill="#000000" stroke="none">
<path d="M3234 4237 c-137 -79 -325 -187 -419 -241 -329 -191 -429 -249 -464
-268 -20 -11 -92 -53 -161 -93 -69 -40 -244 -141 -390 -225 -146 -84 -323
-187 -395 -228 -241 -140 -298 -172 -300 -172 -2 0 -71 -40 -155 -90 -84 -49
-154 -90 -156 -90 -2 0 -22 -11 -44 -25 -22 -14 -53 -25 -70 -25 -43 0 -104
-34 -135 -74 -37 -49 -47 -132 -43 -357 3 -187 4 -191 27 -210 16 -13 39 -19
72 -19 57 0 167 -39 218 -77 128 -94 188 -228 178 -392 -4 -71 -11 -95 -43
-158 -64 -127 -181 -211 -320 -233 -114 -17 -112 -16 -125 -63 -14 -53 -6
-375 11 -432 8 -25 32 -60 64 -91 91 -91 -79 -84 1916 -84 1995 0 1825 -7
1916 84 72 71 78 99 79 337 0 238 4 230 -118 248 -152 21 -268 104 -334 239
-37 75 -38 78 -38 191 0 111 2 119 33 182 70 145 222 249 362 249 32 0 56 6
71 19 l24 19 0 239 c0 209 -2 242 -18 270 -16 31 -16 36 -1 83 12 36 15 70 12
115 -5 58 -13 77 -94 214 -54 92 -96 153 -111 160 -18 8 -37 5 -97 -19 -94
-38 -182 -41 -273 -8 -166 58 -261 201 -251 377 7 123 63 222 164 292 66 45
66 62 -1 181 -127 227 -154 267 -199 293 -30 18 -57 25 -93 25 -45 0 -69 -12
-299 -143z m352 -24 c14 -21 51 -83 83 -138 l58 -100 -53 -52 c-56 -56 -115
-162 -133 -243 -13 -58 -13 -172 0 -230 57 -250 317 -423 572 -382 39 6 84 14
98 17 24 6 30 -1 87 -100 71 -122 77 -140 63 -178 l-11 -27 -1680 0 c-924 0
-1680 3 -1680 8 0 6 52 37 243 145 28 15 91 52 141 81 50 30 107 63 126 73 19
11 224 129 455 263 571 331 588 340 590 340 2 0 61 34 131 76 71 42 153 89
182 106 29 16 166 95 305 175 343 200 349 203 375 203 15 0 31 -13 48 -37z
m-1746 -1648 c5 -87 6 -90 33 -99 37 -14 79 3 88 34 4 14 7 55 8 93 l1 67
1171 0 1171 0 29 -29 29 -29 0 -176 0 -176 -27 -6 c-88 -19 -114 -28 -173 -57
-135 -66 -257 -224 -290 -378 -16 -70 -8 -226 13 -294 34 -106 128 -230 225
-297 53 -37 147 -75 208 -84 l45 -6 -3 -157 c-3 -146 -5 -158 -27 -190 -46
-64 22 -61 -1230 -61 l-1139 0 -3 79 c-4 88 -23 121 -67 121 -49 0 -62 -25
-62 -117 l0 -83 -545 0 c-601 0 -592 -1 -636 61 -22 32 -24 44 -27 190 l-3
157 48 6 c26 4 89 27 140 52 194 96 313 284 313 497 0 42 -5 99 -11 128 -34
159 -150 308 -294 378 -54 27 -81 36 -167 55 l-28 6 0 176 0 176 29 29 30 29
573 -2 573 -3 5 -90z"/>
<path d="M2570 2311 c-134 -44 -209 -151 -197 -281 19 -212 263 -312 432 -177
18 14 46 52 62 84 64 131 12 287 -117 353 -44 23 -141 34 -180 21z m128 -141
c81 -49 94 -143 29 -208 -111 -110 -283 19 -209 157 35 65 118 89 180 51z"/>
<path d="M1857 2232 c-15 -16 -17 -46 -17 -214 0 -176 2 -196 18 -211 25 -23
65 -21 88 4 17 19 19 38 19 209 0 171 -2 190 -19 209 -23 26 -67 27 -89 3z"/>
<path d="M3360 2237 c-25 -7 -99 -74 -270 -243 -129 -128 -326 -322 -436 -431
-221 -217 -230 -230 -222 -329 6 -67 45 -128 103 -158 49 -26 145 -28 190 -4
52 27 865 856 886 902 72 159 -78 316 -251 263z m129 -148 c8 -15 11 -35 7
-50 -3 -13 -192 -212 -419 -442 -358 -363 -416 -417 -441 -417 -40 0 -76 35
-76 75 0 27 34 64 288 317 545 543 552 549 591 546 26 -2 39 -10 50 -29z"/>
<path d="M1870 1577 l-25 -13 -3 -206 -2 -207 30 -16 c26 -13 35 -14 57 -3 39
19 45 58 41 250 -2 133 -6 170 -18 182 -23 22 -53 27 -80 13z"/>
<path d="M3360 1511 c-80 -26 -157 -100 -178 -169 -55 -183 85 -365 269 -349
213 19 316 259 185 430 -54 70 -194 115 -276 88z m141 -144 c89 -59 86 -172
-4 -227 -85 -52 -197 12 -197 113 0 109 113 173 201 114z"/>
</g>
</svg>
