<?xml version="1.0" standalone="no"?>
<!DOCTYPE svg PUBLIC "-//W3C//DTD SVG 20010904//EN"
 "http://www.w3.org/TR/2001/REC-SVG-20010904/DTD/svg10.dtd">
<svg version="1.0" xmlns="http://www.w3.org/2000/svg"
 width="32.000000pt" height="32.000000pt" viewBox="0 0 32.000000 32.000000"
 preserveAspectRatio="xMidYMid meet">

<g transform="translate(0.000000,32.000000) scale(0.100000,-0.100000)"
fill="#000000" stroke="none">
<path d="M195 294 c-83 -43 -187 -108 -192 -120 -7 -19 16 -56 32 -50 7 2 21
-1 31 -8 17 -13 17 -14 -4 -27 -24 -15 -29 -48 -10 -67 17 -17 239 -17 256 0
18 18 14 52 -8 66 -26 16 -26 38 1 52 14 8 19 19 17 38 -3 23 -8 27 -40 30
-37 3 -51 23 -28 37 14 9 12 20 -7 44 -17 20 -20 20 -48 5z m37 -44 c-1 -19
-4 -36 -6 -37 -2 -2 -35 -3 -72 -1 l-69 3 60 37 c73 45 91 45 87 -2z m-111
-62 c0 -10 2 -10 6 0 3 8 31 12 89 12 68 0 86 -3 91 -16 3 -9 -3 -21 -16 -30
-27 -19 -27 -59 0 -78 13 -9 19 -21 16 -30 -9 -23 -245 -22 -254 0 -3 9 3 22
16 30 27 19 27 59 0 78 -30 20 -18 46 21 46 17 0 30 -5 31 -12z m-84 -47 c-16
-6 -27 22 -14 37 10 12 13 11 17 -9 4 -13 2 -26 -3 -28z"/>
<path d="M163 154 c-8 -21 13 -42 28 -27 13 13 5 43 -11 43 -6 0 -13 -7 -17
-16z"/>
<path d="M209 128 c-18 -24 -37 -49 -42 -55 -6 -8 -6 -13 0 -13 11 0 86 100
80 106 -3 3 -19 -14 -38 -38z"/>
<path d="M220 95 c-10 -12 -10 -18 0 -30 15 -18 30 -11 30 15 0 26 -15 33 -30
15z"/>
<path d="M121 84 c0 -11 3 -14 6 -6 3 7 2 16 -1 19 -3 4 -6 -2 -5 -13z"/>
</g>
</svg>
